<svg width="400" height="86" viewBox="0 0 400 86" fill="none" xmlns="http://www.w3.org/2000/svg">
<path d="M53.4831 85.2792C40.4775 85.2792 38.9911 72.4445 37.0093 64.3769C35.2752 61.9321 23.8797 53.6202 16.9433 53.009C10.007 52.3978 -1.76004 52.3978 0.221769 40.2965C2.20358 28.1952 17.191 31.1288 19.2967 36.385C21.4024 41.6411 24.1274 47.3861 32.3024 54.8425C40.4773 62.2989 42.9546 56.1872 41.8398 52.3978C40.7251 48.6085 35.1512 31.3733 22.3933 26.6061C9.63539 21.8389 14.2185 4.23697 26.1093 6.19272C38.0002 8.14847 35.2752 17.4384 35.7706 25.506C36.167 31.96 41.3032 41.2337 43.8217 45.0637C50.6342 55.3316 54.7217 48.853 56.4558 41.1522C58.0329 34.1485 58.6853 23.1835 56.4558 18.6608C54.2263 14.1381 53.4831 10.5932 54.7217 6.19272C55.9603 1.79223 61.9058 -2.11934 69.3376 1.30327C76.7694 4.72587 75.0353 13.7713 71.9387 16.7049C68.8421 19.6386 65.3739 23.0612 62.7728 33.329C60.1717 43.5968 60.1717 52.0311 63.6399 54.8425C67.108 57.6539 71.5671 53.9868 75.7785 50.3198C79.9898 46.6527 83.0864 40.6631 84.9443 34.7958C86.8023 28.9285 92.7477 25.017 99.8079 28.1951C106.868 31.3732 108.974 45.9193 97.3307 47.3861C85.6875 48.8529 79.8659 53.9869 74.0444 58.2651C68.2228 62.5434 69.9569 65.477 69.3376 70.2442C68.7182 75.0114 66.4887 85.2792 53.4831 85.2792Z" fill="#00DDDD"/>
<path d="M146.193 70.8114V14.2133H202.91V49.5871H167.462V35.4375H188.73V28.3628H160.372V70.8114H146.193Z" fill="white"/>
<path d="M252.064 56.6618V28.3628H223.706V56.6618H252.064ZM209.526 70.8114V14.2133H266.243V70.8114H209.526Z" fill="white"/>
<path d="M272.86 70.8114V14.2133H336.666L322.487 28.3628H287.039V56.6618H315.398V49.5871H301.218L287.039 35.4375H329.577V70.8114H272.86Z" fill="white"/>
<path d="M378.731 70.8114L357.462 49.5871V35.4375H378.731V28.3628H350.373V70.8114H336.194V14.2133H392.91V49.5871H378.731L400 70.8114H378.731Z" fill="white"/>
<rect x="230.879" y="35.4841" width="14.0035" height="14.0036" fill="#00DDDD"/>
</svg>
